# xmcd
# 
# Track frame offsets:
#     150
#     17207
#     52587
#     73680
# 
# Disc length: 1274
# 
# Revision: 13
# Processed by: cddbd v1.5.2PL0 Copyright (c) Steve Scherf et al.
# Submitted via: fre:ac v1.0.31
# 
DISCID=2a04f804
DTITLE=Prodigy - Firestarter (Single)
DYEAR=1996
DGENRE=Alternative
TTITLE0=Firestarter (Edit)
TTITLE1=Firestarter (Empirion Mix)
TTITLE2=Firestarter (Instrumental)
TTITLE3=Molotov Bitch
EXTD=
EXTT0=
EXTT1=
EXTT2=
EXTT3=
PLAYORDER=
